<svg width="14" height="13" viewBox="0 0 14 13" fill="none" xmlns="http://www.w3.org/2000/svg">
<path d="M10.625 10.25C9.93125 10.25 9.375 10.8062 9.375 11.5C9.375 11.8315 9.5067 12.1495 9.74112 12.3839C9.97554 12.6183 10.2935 12.75 10.625 12.75C10.9565 12.75 11.2745 12.6183 11.5089 12.3839C11.7433 12.1495 11.875 11.8315 11.875 11.5C11.875 11.1685 11.7433 10.8505 11.5089 10.6161C11.2745 10.3817 10.9565 10.25 10.625 10.25ZM0.625 0.25V1.5H1.875L4.125 6.24375L3.275 7.775C3.18125 7.95 3.125 8.15625 3.125 8.375C3.125 8.70652 3.2567 9.02446 3.49112 9.25888C3.72554 9.4933 4.04348 9.625 4.375 9.625H11.875V8.375H4.6375C4.59606 8.375 4.55632 8.35854 4.52701 8.32924C4.49771 8.29993 4.48125 8.26019 4.48125 8.21875C4.48125 8.1875 4.4875 8.1625 4.5 8.14375L5.0625 7.125H9.71875C10.1875 7.125 10.6 6.8625 10.8125 6.48125L13.05 2.4375C13.0937 2.3375 13.125 2.23125 13.125 2.125C13.125 1.95924 13.0592 1.80027 12.9419 1.68306C12.8247 1.56585 12.6658 1.5 12.5 1.5H3.25625L2.66875 0.25M4.375 10.25C3.68125 10.25 3.125 10.8062 3.125 11.5C3.125 11.8315 3.2567 12.1495 3.49112 12.3839C3.72554 12.6183 4.04348 12.75 4.375 12.75C4.70652 12.75 5.02446 12.6183 5.25888 12.3839C5.4933 12.1495 5.625 11.8315 5.625 11.5C5.625 11.1685 5.4933 10.8505 5.25888 10.6161C5.02446 10.3817 4.70652 10.25 4.375 10.25Z" fill="#1E66BA"/>
</svg>
