<svg width="3" height="2" viewBox="0 0 3 2" fill="none" xmlns="http://www.w3.org/2000/svg">
<path d="M0.447705 3.57628e-07L2.5523 3.57628e-07C2.63538 -0.000107527 2.7168 0.0209002 2.78714 0.0605924C2.85747 0.100284 2.91384 0.157038 2.94972 0.224283C2.99172 0.30407 3.00789 0.392839 2.9964 0.480474C2.98491 0.56811 2.94622 0.651086 2.88473 0.719948L1.83244 1.86379C1.79114 1.90655 1.74008 1.94084 1.68273 1.96434C1.62537 1.98784 1.56305 2 1.5 2C1.43695 2 1.37463 1.98784 1.31727 1.96434C1.25992 1.94084 1.20886 1.90655 1.16756 1.86379L0.115269 0.719948C0.0537798 0.651086 0.0150855 0.56811 0.00359535 0.480474C-0.00789452 0.392839 0.00828242 0.30407 0.0502825 0.224283C0.0861609 0.157038 0.142529 0.100284 0.212862 0.0605924C0.283195 0.0209002 0.364618 -0.000107527 0.447705 3.57628e-07Z" fill="#1E66BA"/>
</svg>
