<svg width="38" height="27" viewBox="0 0 38 27" fill="none" xmlns="http://www.w3.org/2000/svg">
<path d="M25.875 25.7497C25.875 25.9154 25.8091 26.0744 25.6919 26.1916C25.5747 26.3088 25.4157 26.3747 25.25 26.3747H2.74997C2.58421 26.3747 2.42524 26.3088 2.30803 26.1916C2.19082 26.0744 2.12497 25.9154 2.12497 25.7497C2.12497 25.5839 2.19082 25.4249 2.30803 25.3077C2.42524 25.1905 2.58421 25.1247 2.74997 25.1247H25.25C25.4157 25.1247 25.5747 25.1905 25.6919 25.3077C25.8091 25.4249 25.875 25.5839 25.875 25.7497ZM37.114 6.43874C37.0978 6.52586 37.0632 6.60854 37.0125 6.68127C36.9619 6.75401 36.8964 6.81514 36.8203 6.86061L13.7875 20.6106C12.9247 21.1155 11.9434 21.3824 10.9437 21.3841C9.51671 21.3824 8.14434 20.8351 7.10778 19.8544L1.45778 14.3262C1.23396 14.1134 1.0662 13.8485 0.969415 13.5551C0.87263 13.2618 0.849817 12.9491 0.903004 12.6448C0.956192 12.3405 1.08373 12.0541 1.27429 11.811C1.46485 11.5678 1.71251 11.3756 1.99528 11.2512L2.47497 11.0169C2.62121 10.9459 2.78935 10.9347 2.94372 10.9856L7.63122 12.5684L11.7343 10.0934L7.73591 6.21842C7.50434 6.007 7.32949 5.74088 7.22737 5.44442C7.12524 5.14795 7.0991 4.8306 7.15133 4.52142C7.20356 4.21224 7.3325 3.92109 7.52634 3.67462C7.72018 3.42815 7.97274 3.23423 8.26091 3.11061L8.28591 3.10124L9.4031 2.6778C9.54417 2.62509 9.69952 2.62509 9.84059 2.6778L18.5484 5.87467L26.8625 0.905923C28.0181 0.218576 29.3825 -0.0298948 30.7063 0.205936C32.03 0.441768 33.2247 1.14615 34.0718 2.1903L36.9922 5.9403C37.0466 6.01003 37.0856 6.09051 37.1066 6.17643C37.1276 6.26236 37.1301 6.35176 37.114 6.43874ZM35.5718 6.14967L33.0953 2.97467C32.4359 2.16669 31.5083 1.62238 30.4813 1.44085C29.4544 1.25932 28.3964 1.45264 27.5 1.98561L18.9343 7.09967C18.8542 7.14765 18.7643 7.17704 18.6713 7.1857C18.5783 7.19435 18.4845 7.18204 18.3968 7.14967L9.62497 3.92311L8.74059 4.25749C8.64619 4.3007 8.56405 4.36675 8.50157 4.44967C8.43909 4.53259 8.39826 4.62976 8.38275 4.73242C8.36725 4.83508 8.37755 4.93998 8.41275 5.03765C8.44795 5.13532 8.50692 5.22269 8.58434 5.29186C8.58968 5.29798 8.59542 5.30372 8.60153 5.30905L13.1875 9.76061C13.2559 9.82723 13.3082 9.90865 13.3403 9.99863C13.3724 10.0886 13.3834 10.1847 13.3726 10.2796C13.3617 10.3746 13.3292 10.4657 13.2776 10.5461C13.2261 10.6265 13.1567 10.694 13.075 10.7434L8.04059 13.7872C7.96281 13.8343 7.87567 13.8639 7.78526 13.8739C7.69485 13.8839 7.60336 13.874 7.51716 13.845L2.79372 12.2512L2.53278 12.3794L2.50466 12.3934C2.40935 12.4344 2.32574 12.4984 2.26136 12.5797C2.19698 12.6611 2.15385 12.7571 2.13587 12.8593C2.11789 12.9615 2.12561 13.0665 2.15835 13.1649C2.19109 13.2633 2.24782 13.3521 2.32341 13.4231L7.97184 18.9528C8.65651 19.5969 9.53151 20.0017 10.4657 20.1065C11.3998 20.2112 12.3427 20.0104 13.1531 19.534L35.5718 6.14967Z" fill="white"/>
</svg>
