<svg width="35" height="35" viewBox="0 0 35 35" fill="none" xmlns="http://www.w3.org/2000/svg">
<path d="M3.28125 12.0313H31.7188M3.28125 13.125H31.7188M7.65625 20.7813H16.4063M7.65625 24.0625H12.0313M6.5625 28.4375H28.4375C29.3077 28.4375 30.1423 28.0918 30.7577 27.4764C31.373 26.8611 31.7188 26.0265 31.7188 25.1563V9.84375C31.7188 8.97351 31.373 8.13891 30.7577 7.52356C30.1423 6.9082 29.3077 6.5625 28.4375 6.5625H6.5625C5.69226 6.5625 4.85766 6.9082 4.24231 7.52356C3.62695 8.13891 3.28125 8.97351 3.28125 9.84375V25.1563C3.28125 26.0265 3.62695 26.8611 4.24231 27.4764C4.85766 28.0918 5.69226 28.4375 6.5625 28.4375Z" stroke="white" stroke-linecap="round" stroke-linejoin="round"/>
</svg>
