<svg width="31" height="31" viewBox="0 0 31 31" fill="none" xmlns="http://www.w3.org/2000/svg">
<path d="M15.7714 28.7786C15.275 28.9701 14.725 28.9701 14.2286 28.7786C10.3549 27.2914 7.02342 24.6641 4.6743 21.2437C2.32519 17.8233 1.06891 13.7708 1.07142 9.62144V4.02858C1.07025 3.79394 1.14463 3.56515 1.28355 3.37605C1.42248 3.18695 1.61858 3.04759 1.84285 2.97858C10.429 0.429015 19.571 0.429015 28.1571 2.97858C28.3814 3.04759 28.5775 3.18695 28.7164 3.37605C28.8554 3.56515 28.9297 3.79394 28.9286 4.02858V9.62144C28.9311 13.7708 27.6748 17.8233 25.3257 21.2437C22.9766 24.6641 19.6451 27.2914 15.7714 28.7786Z" stroke="white" stroke-linecap="round" stroke-linejoin="round"/>
<path d="M28.9286 22.0869H20.3571C19.7654 22.0869 19.2857 22.5297 19.2857 23.0759V29.01C19.2857 29.5562 19.7654 29.999 20.3571 29.999H28.9286C29.5203 29.999 30 29.5562 30 29.01V23.0759C30 22.5297 29.5203 22.0869 28.9286 22.0869Z" fill="white" stroke="white" stroke-linecap="round" stroke-linejoin="round"/>
<path d="M28.3928 22.0876V20.6041C28.3928 19.6861 27.9977 18.8056 27.2944 18.1564C26.5911 17.5073 25.6373 17.1426 24.6428 17.1426C23.6482 17.1426 22.6944 17.5073 21.9911 18.1564C21.2878 18.8056 20.8928 19.6861 20.8928 20.6041V22.0876" stroke="white" stroke-linecap="round" stroke-linejoin="round"/>
</svg>
