<svg width="32" height="32" viewBox="0 0 32 32" fill="none" xmlns="http://www.w3.org/2000/svg">
<path d="M5.33333 12.8C4.25635 12.7985 3.20434 13.1243 2.3168 13.7344C2.85535 10.4943 4.52618 7.55052 7.03186 5.42695C9.53755 3.30337 12.7155 2.13785 16 2.13785C19.2845 2.13785 22.4625 3.30337 24.9681 5.42695C27.4738 7.55052 29.1446 10.4943 29.6832 13.7344C28.7958 13.1241 27.7437 12.7982 26.6667 12.8C25.818 12.8 25.004 13.1371 24.4039 13.7373C23.8038 14.3374 23.4667 15.1513 23.4667 16V24.5333C23.4664 25.1747 23.6588 25.8014 24.0191 26.3321C24.3793 26.8627 24.8907 27.2729 25.4869 27.5093C25.3021 28.1864 24.8998 28.7839 24.342 29.2099C23.7842 29.6359 23.1018 29.8666 22.4 29.8667H17.0667V32H22.4C23.6451 32.0002 24.851 31.5647 25.8087 30.769C26.7665 29.9734 27.4156 28.8678 27.6437 27.6437C28.8678 27.4156 29.9734 26.7665 30.769 25.8087C31.5647 24.851 32.0002 23.6451 32 22.4V16C32 11.7565 30.3143 7.68687 27.3137 4.68629C24.3131 1.68571 20.2435 0 16 0C11.7565 0 7.68687 1.68571 4.68629 4.68629C1.68571 7.68687 0 11.7565 0 16L0 22.4C0 23.8145 0.561903 25.171 1.5621 26.1712C2.56229 27.1714 3.91885 27.7333 5.33333 27.7333C6.18203 27.7333 6.99596 27.3962 7.59608 26.7961C8.19619 26.196 8.53333 25.382 8.53333 24.5333V16C8.53333 15.1513 8.19619 14.3374 7.59608 13.7373C6.99596 13.1371 6.18203 12.8 5.33333 12.8Z" fill="white"/>
</svg>
