<svg width="28" height="28" viewBox="0 0 28 28" fill="none" xmlns="http://www.w3.org/2000/svg">
<path d="M10.5 3.50033V1.16699H17.5V3.50033H10.5ZM12.8333 16.3337H15.1667V9.33366H12.8333V16.3337ZM14 25.667C12.5611 25.667 11.2047 25.3897 9.93067 24.8352C8.65667 24.2806 7.54367 23.5273 6.59167 22.5753C5.63889 21.6225 4.88522 20.5092 4.33067 19.2352C3.77611 17.9612 3.49922 16.6051 3.5 15.167C3.5 13.7281 3.77728 12.3717 4.33183 11.0977C4.88639 9.82366 5.63967 8.71066 6.59167 7.75866C7.54445 6.80588 8.65783 6.05221 9.93183 5.49766C11.2058 4.9431 12.5619 4.66621 14 4.66699C15.2056 4.66699 16.3625 4.86144 17.4708 5.25033C18.5792 5.63921 19.6194 6.2031 20.5917 6.94199L22.225 5.30866L23.8583 6.94199L22.225 8.57533C22.9639 9.54755 23.5278 10.5878 23.9167 11.6962C24.3056 12.8045 24.5 13.9614 24.5 15.167C24.5 16.6059 24.2227 17.9623 23.6682 19.2363C23.1136 20.5103 22.3603 21.6233 21.4083 22.5753C20.4556 23.5281 19.3422 24.2818 18.0682 24.8363C16.7942 25.3909 15.4381 25.6678 14 25.667ZM14 23.3337C16.2556 23.3337 18.1806 22.5364 19.775 20.942C21.3694 19.3475 22.1667 17.4225 22.1667 15.167C22.1667 12.9114 21.3694 10.9864 19.775 9.39199C18.1806 7.79755 16.2556 7.00033 14 7.00033C11.7444 7.00033 9.81945 7.79755 8.225 9.39199C6.63056 10.9864 5.83333 12.9114 5.83333 15.167C5.83333 17.4225 6.63056 19.3475 8.225 20.942C9.81945 22.5364 11.7444 23.3337 14 23.3337Z" fill="white"/>
</svg>
